<svg xmlns="http://www.w3.org/2000/svg" viewBox="0 0 55.2 62.52"><defs><style>.a{fill:none;stroke:#222220;stroke-miterlimit:10;stroke-width:2px;}</style></defs><title>iTruco</title><path class="a" d="M23.75,18.78a2.53,2.53,0,0,0-3,.54S8.5,33.66,6.72,36.8C2,45.19,4.17,55.44,11.65,59.68s17.41.88,22.17-7.51c1.78-3.14,7.82-21,7.82-21a2.53,2.53,0,0,0-1.1-2.89Z"/><path class="a" d="M25.67,38.8a1.69,1.69,0,0,1-2.32.27h0a1.69,1.69,0,0,1-1-2.13l3.91-6.89a1.69,1.69,0,0,1,2.32-.27h0a1.69,1.69,0,0,1,1,2.13Z"/><line class="a" x1="13.82" y1="27.8" x2="24.06" y2="33.61"/><line class="a" x1="27.52" y1="35.58" x2="38.11" y2="41.58"/><line class="a" x1="28.66" y1="29.7" x2="32.12" y2="23.59"/><path class="a" d="M51.26,11.73A10.8,10.8,0,0,0,36.54,15.8l-4.31,7.59"/><line class="a" x1="27.92" y1="0.49" x2="23.96" y2="7.49"/><line class="a" x1="29.44" y1="5.97" x2="22.44" y2="2.01"/><line class="a" x1="53.19" y1="28.08" x2="49.22" y2="35.07"/><line class="a" x1="54.7" y1="33.56" x2="47.71" y2="29.6"/><line class="a" x1="5.97" y1="21.41" x2="2.01" y2="28.4"/><line class="a" x1="7.49" y1="26.89" x2="0.49" y2="22.92"/></svg>